<svg 
 xmlns="http://www.w3.org/2000/svg"
 xmlns:xlink="http://www.w3.org/1999/xlink"
 width="50px" height="51px">
<path fill-rule="evenodd"  fill="rgb(96, 96, 96)"
 d="M28.454,42.500 C28.454,40.630 26.902,39.100 25.006,39.100 C23.110,39.100 21.558,40.630 21.558,42.500 C21.558,44.369 23.110,45.900 25.006,45.900 C26.902,45.900 28.454,44.369 28.454,42.500 ZM26.730,42.500 C26.730,43.435 25.954,44.200 25.006,44.200 C24.058,44.200 23.282,43.435 23.282,42.500 C23.282,41.565 24.058,40.800 25.006,40.800 C25.954,40.800 26.730,41.565 26.730,42.500 ZM49.142,2.550 C49.142,1.105 48.021,-0.000 46.556,-0.000 C19.834,-0.000 19.834,-0.000 19.834,-0.000 L5.180,-0.000 L3.456,-0.000 C1.991,-0.000 0.870,1.105 0.870,2.550 C0.870,11.050 0.870,11.050 0.870,11.050 C0.353,11.050 0.008,11.389 0.008,11.900 C0.008,19.549 0.008,19.549 0.008,19.549 C0.008,20.060 0.353,20.400 0.870,20.400 C0.870,26.350 0.870,26.350 0.870,26.350 C0.870,28.730 2.766,30.599 5.180,30.599 C13.800,30.599 13.800,30.599 13.800,30.599 C14.834,30.599 15.869,31.024 16.559,31.875 C17.162,32.640 17.507,33.660 17.334,34.680 C16.386,40.374 16.386,40.374 16.386,40.374 C15.783,43.859 17.334,47.514 20.351,49.554 C21.730,50.490 23.368,50.999 25.006,50.999 C26.644,50.999 28.282,50.574 29.747,49.554 C32.678,47.429 34.316,43.860 33.712,40.290 C32.764,34.595 32.764,34.595 32.764,34.595 C32.591,33.575 32.850,32.555 33.540,31.789 C34.143,31.025 35.178,30.600 36.212,30.600 C44.832,30.600 44.832,30.600 44.832,30.600 C47.245,30.600 49.142,28.730 49.142,26.350 C49.142,20.400 49.142,20.400 49.142,20.400 C49.659,20.400 50.004,20.060 50.004,19.550 C50.004,11.900 50.004,11.900 50.004,11.900 C50.004,11.390 49.659,11.050 49.142,11.050 L49.142,2.550 ZM9.490,12.750 L9.490,13.599 C9.490,14.184 9.642,14.735 9.908,15.217 C9.988,15.362 10.078,15.500 10.177,15.630 C10.310,15.805 10.459,15.967 10.623,16.114 C10.827,16.297 11.054,16.456 11.298,16.588 C11.445,16.666 11.597,16.735 11.756,16.793 C11.914,16.850 12.077,16.896 12.245,16.930 C12.301,16.942 12.358,16.952 12.415,16.960 C12.529,16.977 12.644,16.989 12.761,16.995 C12.820,16.998 12.879,17.000 12.938,17.000 C14.834,17.000 16.386,15.470 16.386,13.600 C16.386,12.750 16.386,12.750 16.386,12.750 L48.280,12.750 L48.280,18.700 L1.732,18.700 L1.732,12.750 L9.490,12.750 ZM47.418,11.050 L16.386,11.050 L16.386,7.395 C16.903,7.649 17.507,7.735 18.024,7.649 C18.849,7.554 19.592,7.108 20.084,6.448 C20.466,5.950 20.696,5.333 20.696,4.675 C20.696,4.590 20.696,4.590 20.696,4.590 L20.696,1.699 L46.556,1.699 C47.073,1.699 47.418,2.039 47.418,2.550 L47.418,11.050 ZM18.972,4.590 C18.972,5.056 18.728,5.483 18.381,5.732 C18.191,5.858 17.969,5.935 17.736,5.947 C17.527,5.938 17.340,5.906 17.174,5.841 C17.035,5.778 16.906,5.691 16.796,5.587 C16.549,5.335 16.386,5.005 16.386,4.675 C16.386,3.400 16.386,3.400 16.386,3.400 C16.386,2.890 16.041,2.550 15.524,2.550 C15.007,2.550 14.662,2.890 14.662,3.400 C14.662,4.675 14.662,4.675 14.662,4.675 L14.662,5.100 L14.662,11.900 L14.662,13.600 C14.662,14.535 13.886,15.300 12.938,15.300 C11.990,15.300 11.214,14.535 11.214,13.600 C11.214,11.900 11.214,11.900 11.214,11.900 L11.214,6.800 L11.214,4.250 C11.214,3.740 10.869,3.400 10.352,3.400 C9.835,3.400 9.490,3.740 9.490,4.250 C9.490,6.800 9.490,6.800 9.490,6.800 C9.490,7.500 9.054,8.105 8.437,8.365 C8.435,8.365 8.433,8.366 8.432,8.367 C8.413,8.375 8.393,8.381 8.373,8.388 C8.176,8.454 7.960,8.493 7.727,8.498 C7.697,8.497 7.666,8.495 7.636,8.493 C6.792,8.387 6.042,7.632 6.042,6.629 C6.042,1.699 6.042,1.699 6.042,1.699 L18.972,1.699 L18.972,4.590 L18.972,4.590 ZM3.456,1.699 C4.318,1.699 4.318,1.699 4.318,1.699 L4.318,6.629 L4.318,6.800 C4.318,8.215 5.208,9.435 6.462,9.945 C6.493,9.958 6.524,9.969 6.554,9.981 C6.565,9.985 6.575,9.989 6.585,9.993 C6.903,10.111 7.242,10.183 7.594,10.200 C7.637,10.200 7.680,10.200 7.724,10.199 C7.738,10.199 7.752,10.200 7.766,10.200 C7.871,10.200 7.976,10.193 8.081,10.183 C8.600,10.145 9.095,10.034 9.490,9.774 C9.490,11.050 9.490,11.050 9.490,11.050 L2.594,11.050 L2.594,2.550 C2.594,2.125 3.025,1.699 3.456,1.699 ZM44.918,28.900 C36.298,28.900 36.298,28.900 36.298,28.900 C34.747,28.900 33.281,29.579 32.247,30.770 C31.212,31.875 30.782,33.405 31.040,34.934 C31.988,40.630 31.988,40.630 31.988,40.630 C32.419,43.520 31.126,46.495 28.713,48.194 C26.558,49.725 23.541,49.725 21.386,48.194 C18.886,46.495 17.679,43.520 18.110,40.630 C19.058,34.934 19.058,34.934 19.058,34.934 C19.317,33.490 18.886,31.960 17.851,30.770 C16.817,29.579 15.352,28.900 13.800,28.900 C5.180,28.900 5.180,28.900 5.180,28.900 C4.019,28.900 3.075,28.206 2.733,27.199 C5.180,27.199 5.180,27.199 5.180,27.199 C5.697,27.199 6.042,26.860 6.042,26.350 C6.042,25.839 5.697,25.499 5.180,25.499 C2.594,25.499 2.594,25.499 2.594,25.499 L2.594,23.800 L6.904,23.800 C7.421,23.800 7.766,23.460 7.766,22.950 C7.766,22.440 7.421,22.100 6.904,22.100 C2.594,22.100 2.594,22.100 2.594,22.100 L2.594,20.400 L47.504,20.400 L47.504,26.350 C47.504,27.795 46.384,28.900 44.918,28.900 Z"/>
</svg>