<svg 
 xmlns="http://www.w3.org/2000/svg"
 xmlns:xlink="http://www.w3.org/1999/xlink"
 width="50px" height="50px">
<path fill-rule="evenodd"  fill="rgb(96, 96, 96)"
 d="M49.107,49.999 L33.038,49.999 L16.968,49.999 C16.968,49.999 16.968,49.999 0.898,49.999 C0.362,49.999 0.005,49.642 0.005,49.106 L0.005,33.035 L0.005,16.964 C0.005,16.964 0.005,16.964 0.005,0.892 C0.005,0.357 0.362,-0.000 0.898,-0.000 L16.968,-0.000 L33.038,-0.000 L49.108,-0.000 C49.643,-0.000 50.000,0.357 50.000,0.892 L50.000,16.964 L50.000,33.035 C50.000,33.035 50.000,33.035 50.000,49.106 C50.000,49.642 49.643,49.999 49.107,49.999 ZM16.075,1.785 L1.791,1.785 L1.791,16.071 L16.075,16.071 L16.075,1.785 ZM16.075,17.857 L1.791,17.857 L1.791,32.142 L16.075,32.142 L16.075,17.857 ZM16.075,33.928 L1.791,33.928 L1.791,48.213 L16.075,48.213 L16.075,33.928 ZM32.145,1.785 L17.861,1.785 L17.861,16.071 L32.145,16.071 L32.145,1.785 ZM32.145,17.857 L17.861,17.857 L17.861,32.142 L32.145,32.142 L32.145,17.857 ZM32.145,33.928 L17.861,33.928 L17.861,48.213 L32.145,48.213 L32.145,33.928 ZM48.215,1.785 L33.930,1.785 L33.930,16.071 L48.215,16.071 L48.215,1.785 ZM48.215,17.857 L33.930,17.857 L33.930,32.142 L48.215,32.142 L48.215,17.857 ZM48.215,33.928 L33.930,33.928 L33.930,48.213 L48.215,48.213 L48.215,33.928 ZM36.877,35.088 C37.234,34.731 37.769,34.731 38.127,35.088 C38.484,35.446 38.484,35.982 38.127,36.338 C38.127,36.338 38.127,36.338 36.341,38.124 C36.162,38.303 35.984,38.392 35.716,38.392 C35.448,38.392 35.270,38.303 35.091,38.124 C34.734,37.767 34.734,37.232 35.091,36.874 C35.091,36.874 35.091,36.874 36.877,35.088 ZM36.877,39.553 C37.234,39.195 37.769,39.195 38.127,39.553 C38.484,39.910 38.484,40.446 38.127,40.803 C38.127,40.803 38.127,40.803 36.341,42.588 C36.162,42.767 35.984,42.857 35.716,42.857 C35.448,42.857 35.270,42.767 35.091,42.588 C34.734,42.231 34.734,41.695 35.091,41.339 C35.091,41.339 35.091,41.339 36.877,39.553 ZM41.341,35.088 C41.698,34.731 42.233,34.731 42.590,35.088 C42.947,35.446 42.947,35.982 42.590,36.338 C42.590,36.338 42.590,36.338 40.805,38.124 C40.626,38.303 40.448,38.392 40.180,38.392 C39.912,38.392 39.733,38.303 39.555,38.124 C39.198,37.767 39.198,37.232 39.555,36.874 C39.555,36.874 39.555,36.874 41.341,35.088 ZM36.877,19.017 C37.234,18.660 37.769,18.660 38.127,19.017 C38.484,19.375 38.484,19.910 38.127,20.267 C38.127,20.267 38.127,20.267 36.341,22.053 C36.162,22.231 35.984,22.321 35.716,22.321 C35.448,22.321 35.270,22.231 35.091,22.053 C34.734,21.696 34.734,21.160 35.091,20.803 L36.877,19.017 ZM36.877,23.482 C37.234,23.125 37.769,23.125 38.127,23.482 C38.484,23.839 38.484,24.374 38.127,24.732 C38.127,24.732 38.127,24.732 36.341,26.517 C36.162,26.696 35.984,26.785 35.716,26.785 C35.448,26.785 35.270,26.696 35.091,26.517 C34.734,26.160 34.734,25.624 35.091,25.267 L36.877,23.482 ZM41.341,19.017 C41.698,18.660 42.233,18.660 42.590,19.017 C42.947,19.375 42.947,19.910 42.590,20.267 C42.590,20.267 42.590,20.267 40.805,22.053 C40.626,22.231 40.448,22.321 40.180,22.321 C39.912,22.321 39.734,22.231 39.555,22.053 C39.198,21.696 39.198,21.160 39.555,20.803 L41.341,19.017 ZM36.877,2.946 C37.234,2.589 37.769,2.589 38.127,2.946 C38.484,3.303 38.484,3.839 38.127,4.196 C38.127,4.196 38.127,4.196 36.341,5.982 C36.162,6.160 35.984,6.250 35.716,6.250 C35.448,6.250 35.270,6.160 35.091,5.982 C34.734,5.624 34.734,5.089 35.091,4.732 C35.091,4.732 35.091,4.732 36.877,2.946 ZM36.877,7.410 C37.234,7.053 37.769,7.053 38.127,7.410 C38.484,7.767 38.484,8.303 38.127,8.660 C38.127,8.660 38.127,8.660 36.341,10.446 C36.162,10.625 35.984,10.714 35.716,10.714 C35.448,10.714 35.270,10.625 35.091,10.446 C34.734,10.089 34.734,9.553 35.091,9.196 C35.091,9.196 35.091,9.196 36.877,7.410 ZM41.341,2.946 C41.698,2.589 42.233,2.589 42.590,2.946 C42.947,3.303 42.947,3.839 42.590,4.196 C42.590,4.196 42.590,4.196 40.805,5.982 C40.626,6.160 40.448,6.250 40.180,6.250 C39.912,6.250 39.733,6.160 39.555,5.982 C39.198,5.624 39.198,5.089 39.555,4.732 C39.555,4.732 39.555,4.732 41.341,2.946 ZM20.807,35.088 C21.164,34.731 21.699,34.731 22.057,35.088 C22.414,35.446 22.414,35.982 22.057,36.338 C22.057,36.338 22.057,36.338 20.271,38.124 C20.092,38.303 19.914,38.392 19.646,38.392 C19.378,38.392 19.200,38.303 19.021,38.124 C18.664,37.767 18.664,37.232 19.021,36.874 L20.807,35.088 ZM20.807,39.553 C21.164,39.196 21.699,39.196 22.057,39.553 C22.414,39.910 22.414,40.446 22.057,40.803 C22.057,40.803 22.057,40.803 20.271,42.588 C20.092,42.767 19.914,42.857 19.646,42.857 C19.378,42.857 19.200,42.767 19.021,42.588 C18.664,42.231 18.664,41.696 19.021,41.339 L20.807,39.553 ZM25.270,35.088 C25.628,34.731 26.163,34.731 26.521,35.088 C26.878,35.446 26.878,35.982 26.521,36.338 C26.521,36.338 26.521,36.338 24.735,38.124 C24.556,38.303 24.378,38.392 24.110,38.392 C23.842,38.392 23.664,38.303 23.485,38.124 C23.128,37.767 23.128,37.232 23.485,36.874 L25.270,35.088 ZM20.807,19.017 C21.164,18.660 21.699,18.660 22.057,19.017 C22.414,19.375 22.414,19.910 22.057,20.267 C22.057,20.267 22.057,20.267 20.271,22.053 C20.092,22.231 19.914,22.321 19.646,22.321 C19.378,22.321 19.200,22.231 19.021,22.053 C18.664,21.696 18.664,21.160 19.021,20.803 L20.807,19.017 ZM20.807,23.482 C21.164,23.125 21.699,23.125 22.057,23.482 C22.414,23.839 22.414,24.374 22.057,24.732 C22.057,24.732 22.057,24.732 20.271,26.517 C20.092,26.696 19.914,26.785 19.646,26.785 C19.378,26.785 19.200,26.696 19.021,26.517 C18.664,26.160 18.664,25.624 19.021,25.267 L20.807,23.482 ZM25.270,19.017 C25.628,18.660 26.163,18.660 26.521,19.017 C26.878,19.375 26.878,19.910 26.521,20.267 C26.521,20.267 26.521,20.267 24.735,22.053 C24.556,22.231 24.378,22.321 24.110,22.321 C23.842,22.321 23.664,22.231 23.485,22.053 C23.128,21.696 23.128,21.160 23.485,20.803 L25.270,19.017 ZM20.807,2.946 C21.164,2.589 21.699,2.589 22.057,2.946 C22.414,3.303 22.414,3.839 22.057,4.196 C22.057,4.196 22.057,4.196 20.271,5.982 C20.092,6.160 19.914,6.250 19.646,6.250 C19.378,6.250 19.200,6.160 19.021,5.982 C18.664,5.624 18.664,5.089 19.021,4.732 C19.021,4.732 19.021,4.732 20.807,2.946 ZM20.807,7.410 C21.164,7.053 21.699,7.053 22.057,7.410 C22.414,7.767 22.414,8.303 22.057,8.660 C22.057,8.660 22.057,8.660 20.271,10.446 C20.092,10.625 19.914,10.714 19.646,10.714 C19.378,10.714 19.200,10.625 19.021,10.446 C18.664,10.089 18.664,9.553 19.021,9.196 C19.021,9.196 19.021,9.196 20.807,7.410 ZM25.271,2.946 C25.628,2.589 26.163,2.589 26.521,2.946 C26.878,3.303 26.878,3.839 26.521,4.196 C26.521,4.196 26.521,4.196 24.735,5.982 C24.556,6.160 24.378,6.250 24.110,6.250 C23.842,6.250 23.664,6.160 23.485,5.982 C23.128,5.624 23.128,5.089 23.485,4.732 C23.485,4.732 23.485,4.732 25.271,2.946 ZM4.737,35.088 C5.094,34.731 5.630,34.731 5.987,35.088 C6.344,35.446 6.344,35.982 5.987,36.338 C5.987,36.338 5.987,36.338 4.201,38.124 C4.023,38.303 3.844,38.392 3.576,38.392 C3.308,38.392 3.130,38.303 2.951,38.124 C2.594,37.767 2.594,37.232 2.951,36.874 L4.737,35.088 ZM4.737,39.553 C5.094,39.196 5.630,39.196 5.987,39.553 C6.344,39.910 6.344,40.446 5.987,40.803 C5.987,40.803 5.987,40.803 4.201,42.588 C4.023,42.767 3.844,42.857 3.576,42.857 C3.308,42.857 3.130,42.767 2.951,42.588 C2.594,42.231 2.594,41.696 2.951,41.339 L4.737,39.553 ZM9.201,35.088 C9.558,34.731 10.093,34.731 10.451,35.088 C10.808,35.446 10.808,35.982 10.451,36.338 C10.451,36.338 10.451,36.338 8.665,38.124 C8.486,38.303 8.308,38.392 8.040,38.392 C7.772,38.392 7.594,38.303 7.415,38.124 C7.058,37.767 7.058,37.232 7.415,36.874 L9.201,35.088 ZM4.737,19.017 C5.094,18.660 5.630,18.660 5.987,19.017 C6.344,19.375 6.344,19.910 5.987,20.267 C5.987,20.267 5.987,20.267 4.201,22.053 C4.023,22.231 3.844,22.321 3.576,22.321 C3.308,22.321 3.130,22.231 2.951,22.053 C2.594,21.696 2.594,21.160 2.951,20.803 L4.737,19.017 ZM4.737,23.482 C5.094,23.125 5.630,23.125 5.987,23.482 C6.344,23.839 6.344,24.374 5.987,24.732 C5.987,24.732 5.987,24.732 4.201,26.517 C4.023,26.696 3.844,26.785 3.576,26.785 C3.308,26.785 3.130,26.696 2.951,26.517 C2.594,26.160 2.594,25.624 2.951,25.267 L4.737,23.482 ZM9.201,19.017 C9.558,18.660 10.093,18.660 10.451,19.017 C10.808,19.375 10.808,19.910 10.451,20.267 C10.451,20.267 10.451,20.267 8.665,22.053 C8.486,22.231 8.308,22.321 8.040,22.321 C7.772,22.321 7.594,22.231 7.415,22.053 C7.058,21.696 7.058,21.160 7.415,20.803 L9.201,19.017 ZM4.737,2.946 C5.094,2.589 5.630,2.589 5.987,2.946 C6.344,3.303 6.344,3.839 5.987,4.196 C5.987,4.196 5.987,4.196 4.201,5.982 C4.023,6.160 3.844,6.250 3.576,6.250 C3.398,6.250 3.130,6.160 2.951,5.982 C2.594,5.624 2.594,5.089 2.951,4.732 L4.737,2.946 ZM4.737,7.410 C5.094,7.053 5.630,7.053 5.987,7.410 C6.344,7.768 6.344,8.303 5.987,8.660 C5.987,8.660 5.987,8.660 4.201,10.446 C4.023,10.625 3.844,10.714 3.576,10.714 C3.308,10.714 3.130,10.625 2.951,10.446 C2.594,10.089 2.594,9.553 2.951,9.196 L4.737,7.410 ZM9.201,2.946 C9.558,2.589 10.093,2.589 10.451,2.946 C10.808,3.303 10.808,3.839 10.451,4.196 C10.451,4.196 10.451,4.196 8.665,5.982 C8.486,6.160 8.308,6.250 8.040,6.250 C7.862,6.250 7.594,6.160 7.415,5.982 C7.058,5.624 7.058,5.089 7.415,4.732 L9.201,2.946 Z"/>
</svg>