<svg 
 xmlns="http://www.w3.org/2000/svg"
 xmlns:xlink="http://www.w3.org/1999/xlink"
 width="50px" height="45px">
<path fill-rule="evenodd"  fill="rgb(96, 96, 96)"
 d="M49.224,38.799 C47.178,38.799 46.246,39.752 44.836,41.195 C43.269,42.798 41.122,44.993 37.112,44.993 C33.103,44.993 30.956,42.798 29.389,41.195 C27.979,39.752 27.047,38.799 25.001,38.799 C22.955,38.799 22.024,39.752 20.614,41.195 C19.046,42.797 16.900,44.993 12.891,44.993 C8.881,44.993 6.735,42.797 5.168,41.195 C3.757,39.752 2.825,38.799 0.780,38.799 C0.351,38.799 0.003,38.452 0.003,38.024 C0.003,38.024 0.003,38.024 0.003,15.683 C0.003,15.255 0.351,14.908 0.780,14.908 C1.209,14.908 1.556,15.255 1.556,15.683 C1.556,15.683 1.556,15.683 1.556,34.182 C5.072,34.444 7.040,36.455 8.503,37.952 C9.637,39.111 10.462,39.954 11.804,40.240 C11.804,40.240 11.804,40.240 11.804,33.852 C11.804,33.424 12.152,33.078 12.580,33.078 C13.009,33.078 13.357,33.424 13.357,33.852 C13.357,33.852 13.357,33.852 13.357,40.329 C15.087,40.192 15.980,39.280 17.278,37.952 C18.845,36.349 20.992,34.153 25.001,34.153 C29.011,34.153 31.157,36.349 32.725,37.952 C34.023,39.280 34.917,40.193 36.647,40.329 C36.647,40.329 36.647,40.329 36.647,21.464 C36.647,21.036 36.995,20.690 37.423,20.690 C37.852,20.690 38.200,21.036 38.200,21.464 C38.200,21.464 38.200,21.464 38.200,40.240 C39.542,39.954 40.367,39.111 41.501,37.952 C41.501,37.952 41.501,37.952 41.501,37.951 C42.963,36.455 44.931,34.444 48.447,34.182 C48.447,34.182 48.447,34.182 48.447,1.581 C45.593,1.830 44.016,3.442 42.612,4.879 C41.327,6.193 40.191,7.353 38.200,7.662 C38.200,7.662 38.200,7.662 38.200,17.335 C38.200,17.762 37.852,18.109 37.423,18.109 C36.995,18.109 36.647,17.762 36.647,17.335 C36.647,17.335 36.647,17.335 36.647,7.728 C34.258,7.584 33.026,6.324 31.613,4.879 C30.349,3.586 28.916,2.120 26.518,1.681 C26.096,1.603 25.817,1.200 25.895,0.779 C25.972,0.359 26.377,0.081 26.798,0.158 C29.683,0.686 31.369,2.412 32.724,3.798 C34.135,5.241 35.067,6.194 37.113,6.194 C39.158,6.194 40.090,5.241 41.500,3.798 C43.068,2.195 45.214,-0.001 49.224,-0.001 C49.652,-0.001 50.000,0.346 50.000,0.773 C50.000,0.773 50.000,0.773 50.000,38.024 C50.000,38.452 49.652,38.799 49.224,38.799 ZM48.447,35.735 C45.592,35.984 44.016,37.597 42.612,39.033 C42.612,39.033 42.612,39.033 42.612,39.033 C41.110,40.569 39.813,41.896 37.112,41.896 C34.412,41.896 33.115,40.569 31.613,39.033 C30.086,37.472 28.356,35.702 25.001,35.702 C21.646,35.702 19.916,37.472 18.390,39.033 C16.888,40.569 15.591,41.896 12.890,41.896 C10.190,41.896 8.893,40.569 7.391,39.033 C5.987,37.597 4.411,35.984 1.556,35.735 C1.556,35.735 1.556,35.735 1.556,37.290 C3.744,37.521 4.929,38.732 6.279,40.113 C7.805,41.675 9.535,43.444 12.890,43.444 C16.245,43.444 17.975,41.675 19.502,40.114 C21.004,38.577 22.301,37.250 25.001,37.250 C27.701,37.250 28.999,38.577 30.501,40.113 C32.027,41.675 33.757,43.444 37.112,43.444 C40.467,43.444 42.197,41.675 43.724,40.114 C45.074,38.732 46.259,37.520 48.447,37.290 C48.447,37.290 48.447,37.290 48.447,35.735 ZM23.486,1.681 C21.087,2.120 19.654,3.586 18.390,4.879 C16.977,6.324 15.745,7.584 13.357,7.728 C13.357,7.728 13.357,7.728 13.357,29.722 C13.357,30.150 13.009,30.497 12.580,30.497 C12.152,30.497 11.804,30.150 11.804,29.722 C11.804,29.722 11.804,29.722 11.804,7.662 C9.812,7.353 8.676,6.194 7.391,4.879 C5.987,3.443 4.411,1.830 1.556,1.581 C1.556,1.581 1.556,1.581 1.556,10.728 C1.556,11.155 1.208,11.502 0.780,11.502 C0.351,11.502 0.003,11.155 0.003,10.728 C0.003,10.728 0.003,10.728 0.003,0.773 C0.003,0.346 0.351,-0.001 0.780,-0.001 C4.790,-0.001 6.936,2.195 8.503,3.798 C9.913,5.241 10.845,6.194 12.890,6.194 C14.936,6.194 15.868,5.241 17.278,3.798 C18.633,2.411 20.320,0.686 23.205,0.158 C23.627,0.080 24.031,0.358 24.109,0.779 C24.187,1.200 23.907,1.603 23.486,1.681 Z"/>
</svg>