<svg 
 xmlns="http://www.w3.org/2000/svg"
 xmlns:xlink="http://www.w3.org/1999/xlink"
 width="50px" height="47px">
<path fill-rule="evenodd"  fill="rgb(96, 96, 96)"
 d="M47.249,1.531 L47.249,42.351 L48.784,42.351 C49.244,42.351 49.551,42.661 49.551,43.126 C49.551,43.126 49.551,43.126 49.551,46.225 C49.551,46.691 49.244,47.000 48.784,47.000 C48.784,47.000 48.784,47.000 28.829,47.000 C28.368,47.000 28.061,46.691 28.061,46.225 C28.061,46.225 28.061,46.225 28.061,43.126 C28.061,42.661 28.368,42.351 28.829,42.351 L30.364,42.351 C30.364,42.351 30.364,42.348 30.364,1.531 L19.187,1.531 L19.187,42.351 L20.722,42.351 C21.183,42.351 21.490,42.661 21.490,43.126 C21.490,43.126 21.490,43.126 21.490,46.225 C21.490,46.691 21.183,47.000 20.723,47.000 C20.723,47.000 20.723,47.000 0.768,47.000 C0.307,47.000 0.000,46.691 0.000,46.225 C0.000,46.225 0.000,46.225 0.000,43.126 C0.000,42.661 0.307,42.351 0.768,42.351 L2.303,42.351 C2.303,42.351 2.303,42.348 2.303,1.531 L-0.000,1.531 L-0.000,-0.000 L50.000,-0.000 L50.000,1.531 L47.249,1.531 ZM42.644,36.152 L42.644,34.603 L34.969,34.603 L34.969,36.152 L42.644,36.152 ZM34.969,37.702 L34.969,42.351 L42.644,42.351 L42.644,37.702 L34.969,37.702 ZM42.644,33.053 L42.644,28.404 L34.969,28.404 L34.969,33.053 L42.644,33.053 ZM42.644,26.854 L42.644,25.305 L34.969,25.305 L34.969,26.854 L42.644,26.854 ZM42.644,23.755 L42.644,19.106 L34.969,19.106 L34.969,23.755 L42.644,23.755 ZM42.644,17.556 L42.644,16.006 L34.969,16.006 L34.969,17.556 L42.644,17.556 ZM42.644,14.456 L42.644,9.807 L34.969,9.807 L34.969,14.456 L42.644,14.456 ZM42.644,8.258 L42.644,6.708 L34.969,6.708 L34.969,8.258 L42.644,8.258 ZM44.179,2.059 L44.179,5.933 L44.179,9.032 L44.179,15.231 L44.179,18.331 L44.179,24.530 L44.179,27.629 L44.179,33.828 L44.179,36.927 L44.179,42.351 L45.714,42.351 L45.714,2.059 L44.179,2.059 ZM29.596,43.901 L29.596,45.450 L48.016,45.450 L48.016,43.901 L46.481,43.901 L43.411,43.901 L34.201,43.901 L31.131,43.901 L29.596,43.901 ZM33.434,42.351 L33.434,36.927 L33.434,33.828 L33.434,27.629 L33.434,24.530 L33.434,18.331 L33.434,15.231 L33.434,9.032 L33.434,5.933 L33.434,2.059 L31.899,2.059 L31.899,42.351 L33.434,42.351 ZM34.969,5.158 L42.644,5.158 C42.644,5.158 42.644,5.148 42.644,1.531 L34.969,1.531 L34.969,5.158 ZM6.908,16.006 L6.908,17.556 L14.583,17.556 L14.583,16.006 L6.908,16.006 ZM14.583,14.456 L14.583,9.807 L6.908,9.807 L6.908,14.456 L14.583,14.456 ZM6.908,19.106 L6.908,23.755 L14.583,23.755 L14.583,19.106 L6.908,19.106 ZM14.582,37.702 L6.908,37.702 L6.908,42.351 L14.582,42.351 L14.582,37.702 ZM14.582,36.152 L14.582,34.603 L6.908,34.603 L6.908,36.152 L14.582,36.152 ZM14.582,33.053 L14.582,28.404 L6.908,28.404 L6.908,33.053 L14.582,33.053 ZM14.582,26.854 L14.582,25.305 L6.908,25.305 L6.908,26.854 L14.582,26.854 ZM6.908,8.258 L14.583,8.258 L14.583,6.708 L6.908,6.708 L6.908,8.258 ZM16.117,2.059 L16.117,5.933 L16.117,9.032 L16.117,15.231 L16.117,18.331 L16.117,24.530 L16.117,27.629 L16.117,33.828 L16.117,36.927 L16.117,42.351 L17.652,42.351 L17.652,2.059 L16.117,2.059 ZM1.535,43.901 L1.535,45.450 L19.955,45.450 L19.955,43.901 L18.420,43.901 L15.350,43.901 L6.140,43.901 L3.070,43.901 L1.535,43.901 ZM5.373,42.351 L5.373,36.927 L5.373,33.828 L5.373,27.629 L5.373,24.530 L5.373,18.331 L5.373,15.231 L5.373,9.032 L5.373,5.933 L5.373,2.059 L3.838,2.059 L3.838,42.351 L5.373,42.351 ZM6.908,5.158 L14.583,5.158 C14.583,5.158 14.583,5.148 14.583,1.531 L6.908,1.531 L6.908,5.158 Z"/>
</svg>