<svg 
 xmlns="http://www.w3.org/2000/svg"
 xmlns:xlink="http://www.w3.org/1999/xlink"
 width="42px" height="50px">
<path fill-rule="evenodd"  fill="rgb(96, 96, 96)"
 d="M34.441,19.384 C33.286,24.485 29.448,28.537 24.547,29.880 C24.331,32.482 26.020,34.929 28.560,35.517 C28.564,35.518 28.567,35.520 28.571,35.521 C28.603,35.528 28.634,35.537 28.665,35.548 C28.669,35.549 28.672,35.550 28.676,35.552 C28.707,35.563 28.736,35.574 28.765,35.587 C28.770,35.590 28.775,35.592 28.780,35.595 C28.807,35.608 28.834,35.622 28.860,35.637 C28.865,35.640 28.871,35.644 28.877,35.647 C28.901,35.662 28.926,35.678 28.949,35.695 C28.954,35.699 28.959,35.703 28.964,35.707 C28.988,35.725 29.011,35.744 29.033,35.763 C29.036,35.766 29.040,35.770 29.043,35.773 C29.066,35.794 29.089,35.816 29.110,35.839 C29.111,35.840 29.113,35.842 29.114,35.844 C29.296,36.043 29.408,36.311 29.408,36.606 L29.408,39.955 C29.408,39.955 29.408,39.955 32.447,39.955 C33.047,39.955 33.533,40.454 33.533,41.071 C33.533,41.071 33.533,41.071 33.533,48.883 C33.533,49.499 33.047,50.000 32.447,50.000 C32.447,50.000 32.447,50.000 9.655,50.000 C9.055,50.000 8.569,49.499 8.569,48.883 C8.569,48.883 8.569,48.883 8.569,41.071 C8.569,40.454 9.055,39.955 9.655,39.955 L12.694,39.955 C12.694,39.955 12.694,39.955 12.694,36.633 C12.694,36.627 12.694,36.621 12.694,36.616 C12.694,36.616 12.694,36.616 12.694,36.607 C12.694,36.602 12.695,36.597 12.695,36.592 C12.695,36.561 12.696,36.529 12.699,36.498 C12.700,36.489 12.701,36.481 12.702,36.474 C12.706,36.446 12.709,36.418 12.715,36.390 C12.717,36.379 12.720,36.367 12.722,36.356 C12.728,36.333 12.733,36.309 12.740,36.286 C12.744,36.272 12.749,36.258 12.753,36.244 C12.760,36.225 12.767,36.205 12.774,36.185 C12.780,36.170 12.787,36.156 12.794,36.141 C12.802,36.123 12.810,36.105 12.819,36.088 C12.826,36.074 12.834,36.060 12.842,36.046 C12.851,36.029 12.861,36.011 12.872,35.995 C12.880,35.982 12.889,35.970 12.897,35.958 C12.909,35.940 12.921,35.924 12.934,35.907 C12.942,35.896 12.951,35.886 12.960,35.876 C12.974,35.859 12.989,35.842 13.004,35.826 C13.012,35.817 13.021,35.809 13.030,35.801 C13.047,35.784 13.063,35.768 13.081,35.752 C13.090,35.745 13.099,35.738 13.108,35.730 C13.126,35.715 13.145,35.701 13.164,35.687 C13.174,35.680 13.185,35.673 13.196,35.666 C13.214,35.654 13.233,35.643 13.252,35.631 C13.265,35.624 13.279,35.617 13.294,35.610 C13.310,35.600 13.327,35.592 13.344,35.585 C13.363,35.576 13.381,35.569 13.400,35.562 C13.414,35.556 13.428,35.550 13.443,35.546 C13.465,35.539 13.487,35.533 13.510,35.527 C13.520,35.524 13.530,35.520 13.540,35.518 C16.067,34.932 17.756,32.500 17.556,29.910 C12.601,28.598 8.715,24.521 7.552,19.381 C3.012,17.419 0.001,12.804 0.001,7.700 C0.001,7.084 0.487,6.585 1.087,6.585 L7.194,6.585 C7.194,6.585 7.194,6.585 7.194,1.116 C7.194,0.499 7.680,-0.001 8.279,-0.001 C8.279,-0.001 8.279,-0.001 33.714,-0.001 C34.314,-0.001 34.800,0.499 34.800,1.116 L34.800,6.585 L40.913,6.585 C41.513,6.585 41.999,7.084 41.999,7.700 C41.999,12.806 38.985,17.424 34.441,19.384 ZM7.195,16.215 C7.195,16.210 7.194,16.206 7.194,16.201 L7.194,8.816 L2.232,8.816 C2.579,12.114 4.445,15.051 7.205,16.713 C7.199,16.547 7.195,16.382 7.195,16.215 ZM10.740,42.187 L10.740,47.767 L31.362,47.767 L31.362,42.187 L10.740,42.187 ZM14.864,37.723 L14.864,39.955 L27.238,39.955 L27.238,37.723 L14.864,37.723 ZM24.347,35.491 C23.087,34.103 22.347,32.245 22.357,30.288 C21.909,30.333 21.456,30.357 20.997,30.357 C20.575,30.357 20.158,30.336 19.746,30.298 C19.755,31.742 19.361,33.159 18.588,34.402 C18.344,34.794 18.067,35.157 17.765,35.491 C17.765,35.491 17.765,35.491 24.347,35.491 ZM32.629,2.232 L9.365,2.232 C9.365,2.232 9.365,2.232 9.365,16.163 C9.365,22.759 14.583,28.124 20.997,28.124 C27.411,28.124 32.629,22.759 32.629,16.163 L32.629,16.163 L32.629,2.232 ZM34.800,8.816 C34.800,8.816 34.800,8.816 34.800,16.201 C34.800,16.206 34.799,16.210 34.799,16.215 C34.798,16.382 34.794,16.550 34.788,16.717 C37.552,15.055 39.421,12.116 39.768,8.816 L34.800,8.816 ZM24.960,15.720 C24.960,15.720 24.960,15.720 25.512,19.024 C25.581,19.443 25.414,19.866 25.080,20.115 C24.891,20.257 24.667,20.329 24.442,20.329 C24.269,20.329 24.096,20.286 23.937,20.200 L21.051,18.641 C21.051,18.641 21.051,18.641 18.165,20.200 C17.800,20.398 17.357,20.365 17.022,20.116 C16.688,19.866 16.521,19.443 16.591,19.024 L17.142,15.720 C17.142,15.720 17.142,15.720 14.807,13.380 C14.511,13.083 14.405,12.640 14.532,12.235 C14.660,11.832 15.000,11.537 15.409,11.476 L18.635,10.994 C18.635,10.994 18.635,10.994 20.078,7.988 C20.261,7.607 20.638,7.366 21.051,7.366 C21.464,7.366 21.841,7.607 22.024,7.988 L23.467,10.994 C23.467,10.994 23.467,10.994 26.694,11.476 C27.102,11.537 27.442,11.832 27.570,12.235 C27.697,12.640 27.591,13.083 27.295,13.380 L24.960,15.720 ZM22.590,13.118 C22.237,13.066 21.931,12.837 21.773,12.508 L21.051,11.003 C21.051,11.003 21.051,11.003 20.329,12.508 C20.171,12.837 19.865,13.066 19.512,13.118 L17.897,13.360 C17.897,13.360 17.897,13.360 19.065,14.531 C19.321,14.787 19.438,15.156 19.378,15.519 L19.102,17.172 C19.102,17.172 19.102,17.172 20.546,16.392 C20.704,16.306 20.877,16.264 21.051,16.264 C21.224,16.264 21.398,16.306 21.556,16.392 L23.000,17.172 C23.000,17.172 23.000,17.172 22.725,15.519 C22.664,15.156 22.781,14.787 23.037,14.531 L24.205,13.360 C24.205,13.360 24.205,13.360 22.590,13.118 ZM24.416,46.093 C24.416,46.093 24.416,46.093 17.686,46.093 C17.087,46.093 16.601,45.594 16.601,44.977 C16.601,44.361 17.087,43.861 17.686,43.861 L24.416,43.861 C25.015,43.861 25.501,44.361 25.501,44.977 C25.501,45.593 25.015,46.093 24.416,46.093 Z"/>
</svg>