<svg 
 xmlns="http://www.w3.org/2000/svg"
 xmlns:xlink="http://www.w3.org/1999/xlink"
 width="60px" height="42px">
<path fill-rule="evenodd"  fill="rgb(30, 153, 213)"
 d="M57.008,42.001 C57.008,42.001 57.008,42.001 2.993,42.001 C1.343,42.001 -0.000,40.646 -0.000,38.981 C-0.000,38.981 -0.000,38.981 -0.000,11.989 C-0.000,10.324 1.343,8.969 2.993,8.969 L8.104,8.969 C8.104,8.969 8.104,8.969 8.104,8.271 C8.104,6.366 9.640,4.816 11.528,4.816 C11.528,4.816 11.528,4.816 50.677,4.816 C51.421,4.816 52.026,4.205 52.026,3.455 C52.026,2.705 51.421,2.094 50.677,2.094 C50.677,2.094 50.677,2.094 41.207,2.094 C40.634,2.094 40.169,1.625 40.169,1.047 C40.169,0.469 40.634,0.000 41.207,0.000 C41.207,0.000 41.207,0.000 50.677,0.000 C52.566,0.000 54.102,1.550 54.102,3.455 C54.102,5.360 52.566,6.910 50.677,6.910 C50.677,6.910 50.677,6.910 11.528,6.910 C10.784,6.910 10.179,7.520 10.179,8.271 L10.179,8.969 L57.008,8.969 C58.658,8.969 60.001,10.324 60.001,11.989 C60.001,11.989 60.001,11.989 60.001,38.981 C60.001,40.646 58.658,42.001 57.008,42.001 ZM57.925,11.989 C57.925,11.478 57.514,11.063 57.008,11.063 C57.008,11.063 57.008,11.063 2.993,11.063 C2.487,11.063 2.075,11.478 2.075,11.989 C2.075,11.989 2.075,11.989 2.075,38.981 C2.075,39.491 2.487,39.907 2.993,39.907 C2.993,39.907 2.993,39.907 57.008,39.907 C57.514,39.907 57.925,39.492 57.925,38.981 C57.925,38.981 57.925,38.981 57.925,11.989 ZM55.504,38.511 C55.504,38.511 55.504,38.511 4.497,38.511 C3.924,38.511 3.459,38.042 3.459,37.464 C3.459,37.464 3.459,37.464 3.459,13.506 C3.459,12.928 3.924,12.459 4.497,12.459 L55.504,12.459 C56.077,12.459 56.542,12.928 56.542,13.506 C56.542,13.506 56.542,13.506 56.542,37.464 C56.542,38.042 56.077,38.511 55.504,38.511 ZM52.291,36.417 L54.466,36.417 L54.466,32.526 L52.291,32.526 L52.291,36.417 ZM43.790,36.417 L50.215,36.417 L50.215,32.526 L43.790,32.526 L43.790,36.417 ZM45.965,26.532 L39.539,26.532 L39.539,30.432 L45.965,30.432 L45.965,26.532 ZM48.301,24.438 L48.301,20.538 L43.790,20.538 L43.790,24.438 L48.301,24.438 ZM14.036,26.532 L14.036,30.432 L20.461,30.432 L20.461,26.532 L14.036,26.532 ZM16.211,24.438 L16.211,20.538 L9.785,20.538 L9.785,24.438 L16.211,24.438 ZM18.286,24.438 L24.712,24.438 L24.712,20.538 L18.286,20.538 L18.286,24.438 ZM22.537,26.532 L22.537,30.432 L28.963,30.432 L28.963,26.532 L22.537,26.532 ZM26.788,24.438 L33.213,24.438 L33.213,20.538 L26.788,20.538 L26.788,24.438 ZM31.038,26.532 L31.038,30.432 L37.464,30.432 L37.464,26.532 L31.038,26.532 ZM35.289,24.438 L41.714,24.438 L41.714,20.538 L35.289,20.538 L35.289,24.438 ZM35.289,36.417 L41.714,36.417 L41.714,32.526 L35.289,32.526 L35.289,36.417 ZM26.788,36.417 L33.213,36.417 L33.213,32.526 L26.788,32.526 L26.788,36.417 ZM18.287,36.417 L24.712,36.417 L24.712,32.526 L18.287,32.526 L18.287,36.417 ZM9.785,36.417 L16.211,36.417 L16.211,32.526 L9.785,32.526 L9.785,36.417 ZM5.535,36.417 L7.710,36.417 L7.710,32.526 L5.535,32.526 L5.535,36.417 ZM5.535,30.432 L11.960,30.432 L11.960,26.532 L5.535,26.532 L5.535,30.432 ZM5.535,24.438 L7.710,24.438 L7.710,20.538 L5.535,20.538 L5.535,24.438 ZM11.960,14.553 L5.535,14.553 L5.535,18.444 L11.960,18.444 L11.960,14.553 ZM20.461,14.553 L14.036,14.553 L14.036,18.444 L20.461,18.444 L20.461,14.553 ZM28.963,14.553 L22.537,14.553 L22.537,18.444 L28.963,18.444 L28.963,14.553 ZM37.464,14.553 L31.038,14.553 L31.038,18.444 L37.464,18.444 L37.464,14.553 ZM45.965,14.553 L39.539,14.553 L39.539,18.444 L45.965,18.444 L45.965,14.553 ZM54.466,14.553 L48.041,14.553 L48.041,18.444 L54.466,18.444 L54.466,14.553 ZM54.466,20.538 L50.377,20.538 C50.377,20.538 50.377,20.538 50.377,25.485 C50.377,26.063 49.913,26.532 49.339,26.532 L48.041,26.532 L48.041,30.432 L54.466,30.432 L54.466,30.432 L54.466,20.538 ZM37.376,1.448 C37.373,1.440 37.371,1.436 37.370,1.433 C37.375,1.446 37.394,1.491 37.376,1.448 ZM37.376,1.448 C37.068,0.713 37.702,-0.093 38.474,0.010 C39.316,0.123 39.651,1.183 39.068,1.788 C38.544,2.301 37.661,2.128 37.376,1.448 Z"/>
</svg>