<svg 
 xmlns="http://www.w3.org/2000/svg"
 xmlns:xlink="http://www.w3.org/1999/xlink"
 width="59px" height="36px">
<path fill-rule="evenodd"  fill="rgb(30, 153, 213)"
 d="M58.017,18.999 C57.473,18.999 57.033,18.552 57.033,17.999 L57.033,9.999 C57.033,9.999 57.033,9.999 57.033,0.999 C57.033,0.446 57.473,-0.002 58.017,-0.002 C58.560,-0.002 59.000,0.446 59.000,0.999 C59.000,0.999 59.000,0.999 59.000,17.999 C59.000,18.552 58.560,18.999 58.017,18.999 ZM50.289,16.640 C50.111,16.872 49.852,16.999 49.586,16.999 C49.482,16.999 49.377,16.979 49.276,16.939 C48.915,16.796 48.674,16.420 48.674,15.999 L48.674,10.999 L10.324,10.999 C10.324,10.999 10.324,10.999 10.324,15.999 C10.324,16.419 10.083,16.795 9.722,16.939 C9.621,16.979 9.516,16.999 9.411,16.999 C9.146,16.999 8.887,16.872 8.710,16.640 C8.710,16.640 8.710,16.640 4.145,10.640 C4.004,10.454 3.933,10.226 3.933,9.999 C3.933,9.772 4.004,9.544 4.145,9.359 C4.145,9.359 4.145,9.359 8.710,3.357 C8.958,3.032 9.362,2.915 9.723,3.057 C10.084,3.200 10.325,3.576 10.325,3.997 L10.325,8.999 L48.675,8.999 C48.675,8.999 48.675,8.999 48.675,3.999 C48.675,3.578 48.916,3.202 49.277,3.057 C49.638,2.916 50.043,3.033 50.290,3.357 L54.855,9.358 C54.996,9.544 55.067,9.771 55.067,9.999 C55.067,10.227 54.996,10.454 54.854,10.640 C54.854,10.640 54.854,10.640 50.289,16.640 ZM8.499,6.761 L6.035,9.999 L8.499,13.237 L8.499,6.761 ZM50.501,6.761 L50.501,13.237 L52.965,9.999 L50.501,6.761 ZM0.983,18.999 C0.439,18.999 -0.000,18.552 -0.000,17.999 C-0.000,17.999 -0.000,17.999 -0.000,0.999 C-0.000,0.446 0.439,-0.002 0.983,-0.002 C1.527,-0.002 1.967,0.446 1.966,0.999 L1.966,9.999 C1.966,9.999 1.966,9.999 1.966,17.999 C1.966,18.552 1.527,18.999 0.983,18.999 ZM0.983,22.000 L58.017,22.000 C58.560,22.000 59.000,22.446 59.000,22.999 C59.000,22.999 59.000,22.999 59.000,35.000 C59.000,35.553 58.560,36.000 58.016,36.000 C58.016,36.000 58.016,36.000 0.983,36.000 C0.439,36.000 -0.000,35.553 -0.000,35.000 C-0.000,35.000 -0.000,35.000 -0.000,22.999 C-0.000,22.446 0.439,22.000 0.983,22.000 ZM1.967,34.000 L57.032,34.000 L57.032,23.999 L54.084,23.999 C54.084,23.999 54.084,23.999 54.083,26.000 C54.083,26.552 53.643,26.999 53.100,26.999 C52.556,26.999 52.116,26.551 52.116,26.000 L52.118,23.999 L48.182,23.999 C48.182,23.999 48.182,23.999 48.182,27.999 C48.182,28.553 47.743,29.000 47.199,29.000 C46.655,29.000 46.216,28.553 46.216,27.999 L46.216,23.999 L42.282,23.999 C42.282,23.999 42.282,23.999 42.282,26.000 C42.282,26.552 41.843,26.999 41.299,26.999 C40.755,26.999 40.316,26.552 40.316,26.000 L40.316,23.999 L36.383,23.999 C36.383,23.999 36.383,23.999 36.383,27.999 C36.383,28.553 35.943,29.000 35.399,29.000 C34.855,29.000 34.416,28.553 34.416,27.999 L34.416,23.999 L30.483,23.999 C30.483,23.999 30.483,23.999 30.483,26.000 C30.483,26.552 30.043,26.999 29.499,26.999 C28.956,26.999 28.516,26.552 28.516,26.000 L28.516,23.999 L24.583,23.999 C24.583,23.999 24.583,23.999 24.583,27.999 C24.583,28.553 24.143,29.000 23.600,29.000 C23.056,29.000 22.616,28.553 22.616,27.999 L22.616,23.999 L18.683,23.999 C18.683,23.999 18.683,23.999 18.683,26.000 C18.683,26.552 18.243,26.999 17.700,26.999 C17.156,26.999 16.716,26.552 16.716,26.000 L16.716,23.999 L12.783,23.999 C12.783,23.999 12.783,23.999 12.783,27.999 C12.783,28.553 12.344,29.000 11.800,29.000 C11.256,29.000 10.816,28.553 10.816,27.999 L10.816,23.999 L6.883,23.999 C6.883,23.999 6.883,23.999 6.882,26.000 C6.882,26.552 6.442,26.999 5.899,26.999 C5.355,26.999 4.916,26.551 4.916,26.000 L4.917,23.999 L1.967,23.999 L1.967,34.000 Z"/>
</svg>