<svg xmlns="http://www.w3.org/2000/svg" width="50" height="47"><path fill-rule="evenodd" fill="#606060" d="M47.249 1.531v40.82h1.535c.46 0 .767.31.767.775v3.099c0 .466-.307.775-.767.775H28.829c-.461 0-.768-.309-.768-.775v-3.099c0-.465.307-.775.768-.775h1.535V1.531H19.187v40.82h1.535c.461 0 .768.31.768.775v3.099c0 .466-.307.775-.767.775H.768C.307 47 0 46.691 0 46.225v-3.099c0-.465.307-.775.768-.775h1.535V1.531H0V0h50v1.531h-2.751zm-4.605 34.621v-1.549h-7.675v1.549h7.675zm-7.675 1.55v4.649h7.675v-4.649h-7.675zm7.675-4.649v-4.649h-7.675v4.649h7.675zm0-6.199v-1.549h-7.675v1.549h7.675zm0-3.099v-4.649h-7.675v4.649h7.675zm0-6.199v-1.55h-7.675v1.55h7.675zm0-3.1V9.807h-7.675v4.649h7.675zm0-6.198v-1.55h-7.675v1.55h7.675zm1.535-6.199v40.292h1.535V2.059h-1.535zM29.596 43.901v1.549h18.42v-1.549h-18.42zm3.838-1.55V2.059h-1.535v40.292h1.535zm1.535-37.193h7.675V1.531h-7.675v3.627zM6.908 16.006v1.55h7.675v-1.55H6.908zm7.675-1.55V9.807H6.908v4.649h7.675zm-7.675 4.65v4.649h7.675v-4.649H6.908zm7.674 18.596H6.908v4.649h7.674v-4.649zm0-1.55v-1.549H6.908v1.549h7.674zm0-3.099v-4.649H6.908v4.649h7.674zm0-6.199v-1.549H6.908v1.549h7.674zM6.908 8.258h7.675v-1.55H6.908v1.55zm9.209-6.199v40.292h1.535V2.059h-1.535zM1.535 43.901v1.549h18.42v-1.549H1.535zm3.838-1.55V2.059H3.838v40.292h1.535zM6.908 5.158h7.675V1.531H6.908v3.627z"/></svg>