<svg xmlns="http://www.w3.org/2000/svg" width="50" height="45"><path fill-rule="evenodd" fill="#606060" d="M49.224 38.799c-2.046 0-2.978.953-4.388 2.396-1.567 1.603-3.714 3.798-7.724 3.798-4.009 0-6.156-2.195-7.723-3.798-1.41-1.443-2.342-2.396-4.388-2.396s-2.977.953-4.387 2.396c-1.568 1.602-3.714 3.798-7.723 3.798-4.01 0-6.156-2.196-7.723-3.798-1.411-1.443-2.343-2.396-4.388-2.396a.776.776 0 0 1-.777-.775V15.683a.776.776 0 0 1 1.553 0v18.499c3.516.262 5.484 2.273 6.947 3.77 1.134 1.159 1.959 2.002 3.301 2.288v-6.388c0-.428.348-.774.776-.774.429 0 .777.346.777.774v6.477c1.73-.137 2.623-1.049 3.921-2.377 1.567-1.603 3.714-3.799 7.723-3.799 4.01 0 6.156 2.196 7.724 3.799 1.298 1.328 2.192 2.241 3.922 2.377V21.464c0-.428.348-.774.776-.774.429 0 .777.346.777.774V40.24c1.342-.286 2.167-1.129 3.301-2.288v-.001c1.462-1.496 3.43-3.507 6.946-3.769V1.581c-2.854.249-4.431 1.861-5.835 3.298-1.285 1.314-2.421 2.474-4.412 2.783v9.673a.776.776 0 0 1-1.553 0V7.728c-2.389-.144-3.621-1.404-5.034-2.849-1.264-1.293-2.697-2.759-5.095-3.198a.774.774 0 1 1 .28-1.523c2.885.528 4.571 2.254 5.926 3.64 1.411 1.443 2.343 2.396 4.389 2.396 2.045 0 2.977-.953 4.387-2.396 1.568-1.603 3.714-3.799 7.724-3.799.428 0 .776.347.776.774v37.251a.776.776 0 0 1-.776.775zm-.777-3.064c-2.855.249-4.431 1.862-5.835 3.298-1.502 1.536-2.799 2.863-5.5 2.863-2.7 0-3.997-1.327-5.499-2.863-1.527-1.561-3.257-3.331-6.612-3.331s-5.085 1.77-6.611 3.331c-1.502 1.536-2.799 2.863-5.5 2.863-2.7 0-3.997-1.327-5.499-2.863-1.404-1.436-2.98-3.049-5.835-3.298v1.555c2.188.231 3.373 1.442 4.723 2.823 1.526 1.562 3.256 3.331 6.611 3.331s5.085-1.769 6.612-3.33c1.502-1.537 2.799-2.864 5.499-2.864 2.7 0 3.998 1.327 5.5 2.863 1.526 1.562 3.256 3.331 6.611 3.331s5.085-1.769 6.612-3.33c1.35-1.382 2.535-2.594 4.723-2.824v-1.555zM23.486 1.681c-2.399.439-3.832 1.905-5.096 3.198-1.413 1.445-2.645 2.705-5.033 2.849v21.994a.776.776 0 0 1-1.553 0V7.662c-1.992-.309-3.128-1.468-4.413-2.783-1.404-1.436-2.98-3.049-5.835-3.298v9.147a.776.776 0 0 1-1.553 0V.773c0-.427.348-.774.777-.774 4.01 0 6.156 2.196 7.723 3.799 1.41 1.443 2.342 2.396 4.387 2.396 2.046 0 2.978-.953 4.388-2.396C18.633 2.411 20.32.686 23.205.158a.775.775 0 1 1 .281 1.523z"/></svg>