<svg xmlns="http://www.w3.org/2000/svg" width="50" height="50"><path fill-rule="evenodd" fill="#606060" d="M49.107 49.999H.898c-.536 0-.893-.357-.893-.893V.892C.005.357.362 0 .898 0h48.21c.535 0 .892.357.892.892v48.214c0 .536-.357.893-.893.893zM16.075 1.785H1.791v14.286h14.284V1.785zm0 16.072H1.791v14.285h14.284V17.857zm0 16.071H1.791v14.285h14.284V33.928zm16.07-32.143H17.861v14.286h14.284V1.785zm0 16.072H17.861v14.285h14.284V17.857zm0 16.071H17.861v14.285h14.284V33.928zm16.07-32.143H33.93v14.286h14.285V1.785zm0 16.072H33.93v14.285h14.285V17.857zm0 16.071H33.93v14.285h14.285V33.928zm-11.338 1.16a.863.863 0 0 1 1.25 0 .863.863 0 0 1 0 1.25l-1.786 1.786a.81.81 0 0 1-.625.268.81.81 0 0 1-.625-.268.863.863 0 0 1 0-1.25l1.786-1.786zm0 4.465a.862.862 0 0 1 1.25 0 .863.863 0 0 1 0 1.25l-1.786 1.785c-.179.179-.357.269-.625.269s-.446-.09-.625-.269a.862.862 0 0 1 0-1.249l1.786-1.786zm4.464-4.465a.862.862 0 0 1 1.249 0 .863.863 0 0 1 0 1.25l-1.785 1.786a.81.81 0 0 1-.625.268.808.808 0 0 1-.625-.268.863.863 0 0 1 0-1.25l1.786-1.786zm-4.464-16.071a.863.863 0 0 1 1.25 0 .863.863 0 0 1 0 1.25l-1.786 1.786c-.179.178-.357.268-.625.268s-.446-.09-.625-.268a.863.863 0 0 1 0-1.25l1.786-1.786zm0 4.465a.863.863 0 0 1 1.25 0 .863.863 0 0 1 0 1.25l-1.786 1.785a.81.81 0 0 1-.625.268.81.81 0 0 1-.625-.268.863.863 0 0 1 0-1.25l1.786-1.785zm4.464-4.465a.862.862 0 0 1 1.249 0 .863.863 0 0 1 0 1.25l-1.785 1.786c-.179.178-.357.268-.625.268s-.446-.09-.625-.268a.863.863 0 0 1 0-1.25l1.786-1.786zM36.877 2.946a.863.863 0 0 1 1.25 0 .863.863 0 0 1 0 1.25l-1.786 1.786c-.179.178-.357.268-.625.268s-.446-.09-.625-.268a.863.863 0 0 1 0-1.25l1.786-1.786zm0 4.464a.863.863 0 0 1 1.25 0 .863.863 0 0 1 0 1.25l-1.786 1.786a.81.81 0 0 1-.625.268.81.81 0 0 1-.625-.268.863.863 0 0 1 0-1.25l1.786-1.786zm4.464-4.464a.862.862 0 0 1 1.249 0 .863.863 0 0 1 0 1.25l-1.785 1.786c-.179.178-.357.268-.625.268a.812.812 0 0 1-.625-.268.863.863 0 0 1 0-1.25l1.786-1.786zM20.807 35.088a.863.863 0 0 1 1.25 0 .863.863 0 0 1 0 1.25l-1.786 1.786a.81.81 0 0 1-.625.268.81.81 0 0 1-.625-.268.863.863 0 0 1 0-1.25l1.786-1.786zm0 4.465a.863.863 0 0 1 1.25 0 .863.863 0 0 1 0 1.25l-1.786 1.785c-.179.179-.357.269-.625.269s-.446-.09-.625-.269a.862.862 0 0 1 0-1.249l1.786-1.786zm4.463-4.465a.865.865 0 0 1 1.251 0 .863.863 0 0 1 0 1.25l-1.786 1.786a.81.81 0 0 1-.625.268.81.81 0 0 1-.625-.268.863.863 0 0 1 0-1.25l1.785-1.786zm-4.463-16.071a.863.863 0 0 1 1.25 0 .863.863 0 0 1 0 1.25l-1.786 1.786c-.179.178-.357.268-.625.268s-.446-.09-.625-.268a.863.863 0 0 1 0-1.25l1.786-1.786zm0 4.465a.863.863 0 0 1 1.25 0 .863.863 0 0 1 0 1.25l-1.786 1.785a.81.81 0 0 1-.625.268.81.81 0 0 1-.625-.268.863.863 0 0 1 0-1.25l1.786-1.785zm4.463-4.465a.865.865 0 0 1 1.251 0 .863.863 0 0 1 0 1.25l-1.786 1.786c-.179.178-.357.268-.625.268s-.446-.09-.625-.268a.863.863 0 0 1 0-1.25l1.785-1.786zM20.807 2.946a.863.863 0 0 1 1.25 0 .863.863 0 0 1 0 1.25l-1.786 1.786c-.179.178-.357.268-.625.268s-.446-.09-.625-.268a.863.863 0 0 1 0-1.25l1.786-1.786zm0 4.464a.863.863 0 0 1 1.25 0 .863.863 0 0 1 0 1.25l-1.786 1.786a.81.81 0 0 1-.625.268.81.81 0 0 1-.625-.268.863.863 0 0 1 0-1.25l1.786-1.786zm4.464-4.464a.863.863 0 0 1 1.25 0 .863.863 0 0 1 0 1.25l-1.786 1.786c-.179.178-.357.268-.625.268s-.446-.09-.625-.268a.863.863 0 0 1 0-1.25l1.786-1.786zM4.737 35.088a.863.863 0 0 1 1.25 0 .863.863 0 0 1 0 1.25l-1.786 1.786a.808.808 0 0 1-.625.268.81.81 0 0 1-.625-.268.863.863 0 0 1 0-1.25l1.786-1.786zm0 4.465a.863.863 0 0 1 1.25 0 .863.863 0 0 1 0 1.25l-1.786 1.785a.809.809 0 0 1-.625.269c-.268 0-.446-.09-.625-.269a.862.862 0 0 1 0-1.249l1.786-1.786zm4.464-4.465a.863.863 0 0 1 1.25 0 .863.863 0 0 1 0 1.25l-1.786 1.786a.81.81 0 0 1-.625.268.81.81 0 0 1-.625-.268.863.863 0 0 1 0-1.25l1.786-1.786zM4.737 19.017a.863.863 0 0 1 1.25 0 .863.863 0 0 1 0 1.25l-1.786 1.786a.812.812 0 0 1-.625.268c-.268 0-.446-.09-.625-.268a.863.863 0 0 1 0-1.25l1.786-1.786zm0 4.465a.863.863 0 0 1 1.25 0 .863.863 0 0 1 0 1.25l-1.786 1.785a.808.808 0 0 1-.625.268.81.81 0 0 1-.625-.268.863.863 0 0 1 0-1.25l1.786-1.785zm4.464-4.465a.863.863 0 0 1 1.25 0 .863.863 0 0 1 0 1.25l-1.786 1.786c-.179.178-.357.268-.625.268s-.446-.09-.625-.268a.863.863 0 0 1 0-1.25l1.786-1.786zM4.737 2.946a.863.863 0 0 1 1.25 0 .863.863 0 0 1 0 1.25L4.201 5.982a.812.812 0 0 1-.625.268.97.97 0 0 1-.625-.268.863.863 0 0 1 0-1.25l1.786-1.786zm0 4.464a.863.863 0 0 1 1.25 0 .863.863 0 0 1 0 1.25l-1.786 1.786a.808.808 0 0 1-.625.268.81.81 0 0 1-.625-.268.863.863 0 0 1 0-1.25L4.737 7.41zm4.464-4.464a.863.863 0 0 1 1.25 0 .863.863 0 0 1 0 1.25L8.665 5.982c-.179.178-.357.268-.625.268a.97.97 0 0 1-.625-.268.863.863 0 0 1 0-1.25l1.786-1.786z"/></svg>