<svg xmlns="http://www.w3.org/2000/svg" width="50" height="51"><path fill-rule="evenodd" fill="#606060" d="M28.454 42.5c0-1.87-1.552-3.4-3.448-3.4s-3.448 1.53-3.448 3.4c0 1.869 1.552 3.4 3.448 3.4s3.448-1.531 3.448-3.4zm-1.724 0c0 .935-.776 1.7-1.724 1.7s-1.724-.765-1.724-1.7c0-.935.776-1.7 1.724-1.7s1.724.765 1.724 1.7zM49.142 2.55c0-1.445-1.121-2.55-2.586-2.55h-43.1C1.991 0 .87 1.105.87 2.55v8.5c-.517 0-.862.339-.862.85v7.649c0 .511.345.851.862.851v5.95c0 2.38 1.896 4.249 4.31 4.249h8.62c1.034 0 2.069.425 2.759 1.276.603.765.948 1.785.775 2.805l-.948 5.694c-.603 3.485.948 7.14 3.965 9.18a8.34 8.34 0 0 0 4.655 1.445c1.638 0 3.276-.425 4.741-1.445 2.931-2.125 4.569-5.694 3.965-9.264l-.948-5.695c-.173-1.02.086-2.04.776-2.806.603-.764 1.638-1.189 2.672-1.189h8.62c2.413 0 4.31-1.87 4.31-4.25V20.4c.517 0 .862-.34.862-.85V11.9c0-.51-.345-.85-.862-.85v-8.5zM9.49 12.75v.849a3.338 3.338 0 0 0 .687 2.031A3.465 3.465 0 0 0 12.938 17c1.896 0 3.448-1.53 3.448-3.4v-.85H48.28v5.95H1.732v-5.95H9.49zm37.928-1.7H16.386V7.395c.517.254 1.121.34 1.638.254a3.013 3.013 0 0 0 2.06-1.201 2.915 2.915 0 0 0 .612-1.773V1.699h25.86c.517 0 .862.34.862.851v8.5zM18.972 4.59c0 .466-.244.893-.591 1.142-.19.126-.412.203-.645.215a1.74 1.74 0 0 1-.562-.106 1.386 1.386 0 0 1-.378-.254c-.247-.252-.41-.582-.41-.912V3.4c0-.51-.345-.85-.862-.85s-.862.34-.862.85v10.2c0 .935-.776 1.7-1.724 1.7s-1.724-.765-1.724-1.7V4.25c0-.51-.345-.85-.862-.85s-.862.34-.862.85V6.8a1.708 1.708 0 0 1-1.058 1.567c-.019.008-.039.014-.059.021a2.174 2.174 0 0 1-.646.11 2.773 2.773 0 0 1-.091-.005c-.844-.106-1.594-.861-1.594-1.864v-4.93h12.93V4.59zM3.456 1.699h.862V6.8c0 1.415.89 2.635 2.144 3.145l.092.036.031.012c.318.118.657.19 1.009.207l.13-.001.042.001c.105 0 .21-.007.315-.017.519-.038 1.014-.149 1.409-.409v1.276H2.594v-8.5c0-.425.431-.851.862-.851zM44.918 28.9h-8.62a5.355 5.355 0 0 0-4.051 1.87c-1.035 1.105-1.465 2.635-1.207 4.164l.948 5.696c.431 2.89-.862 5.865-3.275 7.564-2.155 1.531-5.172 1.531-7.327 0-2.5-1.699-3.707-4.674-3.276-7.564l.948-5.696c.259-1.444-.172-2.974-1.207-4.164A5.354 5.354 0 0 0 13.8 28.9H5.18c-1.161 0-2.105-.694-2.447-1.701H5.18c.517 0 .862-.339.862-.849 0-.511-.345-.851-.862-.851H2.594V23.8h4.31c.517 0 .862-.34.862-.85s-.345-.85-.862-.85h-4.31v-1.7h44.91v5.95c0 1.445-1.12 2.55-2.586 2.55z"/></svg>