<svg xmlns="http://www.w3.org/2000/svg" width="59" height="36"><path fill-rule="evenodd" fill="#1E99D5" d="M58.017 18.999a.991.991 0 0 1-.984-1v-17c0-.553.44-1.001.984-1.001.543 0 .983.448.983 1.001v17c0 .553-.44 1-.983 1zm-7.728-2.359a.888.888 0 0 1-.703.359.842.842 0 0 1-.31-.06c-.361-.143-.602-.519-.602-.94v-5h-38.35v5c0 .42-.241.796-.602.94a.843.843 0 0 1-.311.06.884.884 0 0 1-.701-.359l-4.565-6a1.063 1.063 0 0 1-.212-.641c0-.227.071-.455.212-.64L8.71 3.357a.865.865 0 0 1 1.013-.3c.361.143.602.519.602.94v5.002h38.35v-5c0-.421.241-.797.602-.942a.867.867 0 0 1 1.013.3l4.565 6.001c.141.186.212.413.212.641 0 .228-.071.455-.213.641l-4.565 6zM8.499 6.761L6.035 9.999l2.464 3.238V6.761zm42.002 0v6.476l2.464-3.238-2.464-3.238zM.983 18.999a.99.99 0 0 1-.983-1v-17A.991.991 0 0 1 .983-.002.99.99 0 0 1 1.966.999v17a.99.99 0 0 1-.983 1zm0 3.001h57.034a.99.99 0 0 1 .983.999V35c0 .553-.44 1-.984 1H.983A.99.99 0 0 1 0 35V22.999A.99.99 0 0 1 .983 22zm.984 12h55.065V23.999h-2.948L54.083 26a.99.99 0 0 1-.983.999.992.992 0 0 1-.984-.999l.002-2.001h-3.936v4A.99.99 0 0 1 47.199 29a.99.99 0 0 1-.983-1.001v-4h-3.934V26a.99.99 0 0 1-.983.999.99.99 0 0 1-.983-.999v-2.001h-3.933v4A.992.992 0 0 1 35.399 29a.99.99 0 0 1-.983-1.001v-4h-3.933V26c0 .552-.44.999-.984.999a.99.99 0 0 1-.983-.999v-2.001h-3.933v4A.991.991 0 0 1 23.6 29a.992.992 0 0 1-.984-1.001v-4h-3.933V26a.99.99 0 0 1-.983.999.991.991 0 0 1-.984-.999v-2.001h-3.933v4A.99.99 0 0 1 11.8 29a.992.992 0 0 1-.984-1.001v-4H6.883L6.882 26a.99.99 0 0 1-.983.999.99.99 0 0 1-.983-.999l.001-2.001h-2.95V34z"/></svg>