<svg xmlns="http://www.w3.org/2000/svg" width="42" height="50"><path fill-rule="evenodd" fill="#606060" d="M34.441 19.384c-1.155 5.101-4.993 9.153-9.894 10.496-.216 2.602 1.473 5.049 4.013 5.637l.011.004a.775.775 0 0 1 .105.031c.031.011.06.022.089.035l.015.008c.027.013.054.027.08.042l.017.01c.024.015.049.031.072.048l.015.012c.024.018.047.037.069.056l.01.01c.023.021.046.043.067.066l.004.005c.182.199.294.467.294.762v3.349h3.039c.6 0 1.086.499 1.086 1.116v7.812c0 .616-.486 1.117-1.086 1.117H9.655c-.6 0-1.086-.501-1.086-1.117v-7.812c0-.617.486-1.116 1.086-1.116h3.039v-3.348l.001-.015a.985.985 0 0 1 .007-.118c.004-.028.007-.056.013-.084l.007-.034c.006-.023.011-.047.018-.07l.013-.042.021-.059.02-.044a.86.86 0 0 1 .025-.053l.023-.042a.524.524 0 0 1 .03-.051l.025-.037a.948.948 0 0 1 .037-.051l.026-.031a1.048 1.048 0 0 1 .121-.124l.027-.022.056-.043.032-.021.056-.035a.821.821 0 0 1 .042-.021.66.66 0 0 1 .149-.064 1.31 1.31 0 0 1 .067-.019l.03-.009c2.527-.586 4.216-3.018 4.016-5.608-4.955-1.312-8.841-5.389-10.004-10.529C3.012 17.419.001 12.804.001 7.7c0-.616.486-1.115 1.086-1.115h6.107V1.116c0-.617.486-1.117 1.085-1.117h25.435c.6 0 1.086.5 1.086 1.117v5.469h6.113c.6 0 1.086.499 1.086 1.115 0 5.106-3.014 9.724-7.558 11.684zM7.195 16.215l-.001-.014V8.816H2.232c.347 3.298 2.213 6.235 4.973 7.897-.006-.166-.01-.331-.01-.498zm3.545 25.972v5.58h20.622v-5.58H10.74zm4.124-4.464v2.232h12.374v-2.232H14.864zm9.483-2.232a7.704 7.704 0 0 1-1.99-5.203 13.593 13.593 0 0 1-2.611.01 7.66 7.66 0 0 1-1.981 5.193h6.582zm8.282-33.259H9.365v13.931c0 6.596 5.218 11.961 11.632 11.961s11.632-5.365 11.632-11.961V2.232zM34.8 8.816v7.385l-.001.014c-.001.167-.005.335-.011.502 2.764-1.662 4.633-4.601 4.98-7.901H34.8zm-9.84 6.904l.552 3.304c.069.419-.098.842-.432 1.091a1.06 1.06 0 0 1-1.143.085l-2.886-1.559-2.886 1.559a1.061 1.061 0 0 1-1.143-.084 1.131 1.131 0 0 1-.431-1.092l.551-3.304-2.335-2.34a1.14 1.14 0 0 1-.275-1.145c.128-.403.468-.698.877-.759l3.226-.482 1.443-3.006c.183-.381.56-.622.973-.622.413 0 .79.241.973.622l1.443 3.006 3.227.482c.408.061.748.356.876.759a1.14 1.14 0 0 1-.275 1.145l-2.335 2.34zm-2.37-2.602a1.087 1.087 0 0 1-.817-.61l-.722-1.505-.722 1.505a1.087 1.087 0 0 1-.817.61l-1.615.242 1.168 1.171c.256.256.373.625.313.988l-.276 1.653 1.444-.78a1.053 1.053 0 0 1 1.01 0l1.444.78-.275-1.653a1.132 1.132 0 0 1 .312-.988l1.168-1.171-1.615-.242zm1.826 32.975h-6.73c-.599 0-1.085-.499-1.085-1.116 0-.616.486-1.116 1.085-1.116h6.73c.599 0 1.085.5 1.085 1.116 0 .616-.486 1.116-1.085 1.116z"/></svg>