<svg xmlns="http://www.w3.org/2000/svg" width="60" height="42"><path fill-rule="evenodd" fill="#1E99D5" d="M57.008 42.001H2.993c-1.65 0-2.993-1.355-2.993-3.02V11.989c0-1.665 1.343-3.02 2.993-3.02h5.111v-.698c0-1.905 1.536-3.455 3.424-3.455h39.149c.744 0 1.349-.611 1.349-1.361s-.605-1.361-1.349-1.361h-9.47a1.043 1.043 0 0 1-1.038-1.047c0-.578.465-1.047 1.038-1.047h9.47c1.889 0 3.425 1.55 3.425 3.455S52.566 6.91 50.677 6.91H11.528c-.744 0-1.349.61-1.349 1.361v.698h46.829c1.65 0 2.993 1.355 2.993 3.02v26.992c0 1.665-1.343 3.02-2.993 3.02zm.917-30.012a.922.922 0 0 0-.917-.926H2.993a.923.923 0 0 0-.918.926v26.992c0 .51.412.926.918.926h54.015a.922.922 0 0 0 .917-.926V11.989zm-2.421 26.522H4.497a1.043 1.043 0 0 1-1.038-1.047V13.506c0-.578.465-1.047 1.038-1.047h51.007c.573 0 1.038.469 1.038 1.047v23.958c0 .578-.465 1.047-1.038 1.047zm-3.213-2.094h2.175v-3.891h-2.175v3.891zm-8.501 0h6.425v-3.891H43.79v3.891zm2.175-9.885h-6.426v3.9h6.426v-3.9zm2.336-2.094v-3.9H43.79v3.9h4.511zm-34.265 2.094v3.9h6.425v-3.9h-6.425zm2.175-2.094v-3.9H9.785v3.9h6.426zm2.075 0h6.426v-3.9h-6.426v3.9zm4.251 2.094v3.9h6.426v-3.9h-6.426zm4.251-2.094h6.425v-3.9h-6.425v3.9zm4.25 2.094v3.9h6.426v-3.9h-6.426zm4.251-2.094h6.425v-3.9h-6.425v3.9zm0 11.979h6.425v-3.891h-6.425v3.891zm-8.501 0h6.425v-3.891h-6.425v3.891zm-8.501 0h6.425v-3.891h-6.425v3.891zm-8.502 0h6.426v-3.891H9.785v3.891zm-4.25 0H7.71v-3.891H5.535v3.891zm0-5.985h6.425v-3.9H5.535v3.9zm0-5.994H7.71v-3.9H5.535v3.9zm6.425-9.885H5.535v3.891h6.425v-3.891zm8.501 0h-6.425v3.891h6.425v-3.891zm8.502 0h-6.426v3.891h6.426v-3.891zm8.501 0h-6.426v3.891h6.426v-3.891zm8.501 0h-6.426v3.891h6.426v-3.891zm8.501 0h-6.425v3.891h6.425v-3.891zm0 5.985h-4.089v4.947c0 .578-.464 1.047-1.038 1.047h-1.298v3.9h6.425v-9.894zm-17.09-19.09l-.006-.015.006.015zm0 0c-.308-.735.326-1.541 1.098-1.438.842.113 1.177 1.173.594 1.778a1.044 1.044 0 0 1-1.692-.34z"/></svg>